<svg width="14" height="14" viewBox="0 0 14 14" fill="none" xmlns="http://www.w3.org/2000/svg">
<g clip-path="url(#clip0_8337_13631)">
<path d="M7 0C3.14222 0 0 3.14222 0 7C0 10.8578 3.14222 14 7 14C10.8578 14 14 10.8578 14 7C14 3.14222 10.8578 0 7 0ZM7 1.55556C8.22111 1.55556 9.34889 1.96778 10.2511 2.64444L2.64444 10.2511C1.96778 9.34889 1.55556 8.22111 1.55556 7C1.55556 3.99778 3.99778 1.55556 7 1.55556ZM7 12.4444C5.77889 12.4444 4.65111 12.0322 3.74889 11.3556L11.3556 3.74889C12.0322 4.65111 12.4444 5.77889 12.4444 7C12.4444 10.0022 10.0022 12.4444 7 12.4444Z" fill="#E02430"/>
</g>
<defs>
<clipPath id="clip0_8337_13631">
<rect width="14" height="14" fill="white"/>
</clipPath>
</defs>
</svg>
